<svg xmlns="http://www.w3.org/2000/svg" viewBox="0 0 640 640" role="img" aria-labelledby="title desc">
  <title>Logo ACE Eco pot</title>
  <desc>Friendly circular logo with potatoes, plants and ACE text</desc>
  <defs>
    <linearGradient id="bg" x1="0" y1="0" x2="1" y2="1">
      <stop offset="0%" stop-color="#f8fcf8"/>
      <stop offset="100%" stop-color="#e6f5ea"/>
    </linearGradient>
  </defs>
  <circle cx="320" cy="320" r="300" fill="url(#bg)" stroke="#b8d8bd" stroke-width="12"/>
  <circle cx="320" cy="320" r="240" fill="#fff" stroke="#b6ddbd" stroke-width="8"/>
  <text x="320" y="90" font-family="'Baloo 2', 'Arial Rounded MT Bold', sans-serif" font-size="76" fill="#64c0e1" text-anchor="middle">LTT</text>
  <circle cx="320" cy="150" r="55" fill="#b32629" stroke="#fff" stroke-width="6" opacity="0.92"/>
  <text x="320" y="360" font-family="'Fredoka One','Baloo 2',sans-serif" font-size="132" fill="#58b08e" text-anchor="middle">ACE</text>
  <text x="320" y="420" font-family="'Quicksand','Nunito',sans-serif" font-size="46" fill="#8bb86e" text-anchor="middle">Eco pot</text>
  <g fill="#d9bc6c" stroke="#c39c52" stroke-width="6" opacity="0.96">
    <ellipse cx="250" cy="450" rx="70" ry="55"/>
    <ellipse cx="360" cy="440" rx="78" ry="60"/>
  </g>
  <g stroke="#67a55b" stroke-width="10" stroke-linecap="round" stroke-linejoin="round" fill="none">
    <path d="M120 410 v-90"/>
    <path d="M150 410 v-80"/>
    <path d="M180 410 v-85"/>
    <path d="M470 420 v-90"/>
    <path d="M500 420 v-80"/>
    <path d="M530 420 v-85"/>
  </g>
  <g fill="#7bbb74" opacity="0.9">
    <ellipse cx="120" cy="300" rx="26" ry="18"/>
    <ellipse cx="150" cy="290" rx="30" ry="20"/>
    <ellipse cx="180" cy="300" rx="24" ry="18"/>
    <ellipse cx="470" cy="310" rx="26" ry="18"/>
    <ellipse cx="500" cy="300" rx="30" ry="20"/>
    <ellipse cx="530" cy="310" rx="24" ry="18"/>
  </g>
  <g fill="#d19362" stroke="#a66843" stroke-width="8">
    <rect x="90" y="410" width="60" height="70" rx="8"/>
    <rect x="490" y="420" width="60" height="70" rx="8"/>
  </g>
</svg>
